<svg xmlns="http://www.w3.org/2000/svg" version="1.1" xmlns:xlink="http://www.w3.org/1999/xlink"
   xmlns:svgjs="http://svgjs.dev/svgjs" width="1000" height="1125" viewBox="0 0 1000 1125">
   <g transform="matrix(1,0,0,1,1.7053025658242404e-13,0)">
      <svg viewBox="0 0 320 360" data-background-color="#ffffff" preserveAspectRatio="xMidYMid meet"
         height="1125" width="1000" xmlns="http://www.w3.org/2000/svg"
         xmlns:xlink="http://www.w3.org/1999/xlink">
         <g id="tight-bounds" transform="matrix(1,0,0,1,0,0)">
            <svg viewBox="0 0 320 360" height="360" width="320">
               <g>
                  <svg></svg>
               </g>
               <g>
                  <svg viewBox="0 0 320 360" height="360" width="320">
                     <g>
                        <path xmlns="http://www.w3.org/2000/svg"
                           d="M20.961 227.22l3.726 4.658-1.863-6.056c-0.466-2.795-3.726 0.466-1.863 1.398M25.153 224.425c1.397 2.329 2.795 4.658 2.795 6.987 0 3.261 2.795 4.658 5.123 5.589-3.261-3.726-5.124-13.974-7.918-12.576M204.017 26.929c7.918 0 15.371-0.932 23.756 0.931 20.495 5.124 37.729 15.371 49.374 29.811l32.606 52.169c1.397 13.042 4.192 27.482 3.726 43.319 3.261 0 2.795-4.658 6.521-5.59-3.726 9.316-5.59 20.961-6.521 34.469-2.329-7.453 0-18.632 0.466-24.687-3.261 5.124-5.124 1.397-5.124-0.932 0.466-3.726-1.397-3.261-2.795-4.658-5.124-4.658-8.384-9.782-12.11-17.7 2.329-6.055 2.795-14.905-4.658-19.563-2.329-1.397-5.124-3.726-6.521-7.453-1.863-5.124-5.124-11.179-4.193-19.097 0.466-2.329-6.987 5.124-11.179 1.863-18.166-12.576-36.332-27.016-58.224-39.127-11.645 0-20.029-4.192-24.221-9.316-3.726-4.658-0.932-10.713 4.658-11.179 3.261 0 6.987-0.932 9.782 0.932 0.466-1.863 2.329-4.192 4.657-4.192M157.904 16.215l0.932 0.466c4.658 0.932 6.987 7.453 12.11 5.124 0 3.261 0.466 6.521-0.466 8.85-1.397 3.726-5.59 3.726-8.85 3.726-31.208-1.863-49.374 11.179-68.471 22.358-5.124 3.261-10.713 5.59-14.906 9.782-20.029 18.632-41.921 35.866-47.045 70.335l-4.192 38.195c-0.466 4.192-5.124 8.384-4.192 13.508l3.26 22.824c-3.261-3.261-5.124 0.932-4.192 2.795 0.466 1.397 2.329 6.055 5.124 1.863 3.726 6.987 7.453 20.495 12.576 26.55 15.837 18.632 36.332 35.4 53.101 52.169 4.192-0.932 7.453-0.932 8.384-3.727 1.397 2.795-1.397 5.59-3.726 6.056 7.453 4.658 15.837 8.85 27.016 9.781 14.44 0.932 27.948 3.261 40.524 6.522 6.521-1.863 13.042-2.795 20.029-3.261 2.329 0 3.726-3.726 6.521-4.658l0.466-4.658c2.795 4.192 2.329-1.397 0.466-4.192 3.261 2.795 4.192 5.124 5.589 6.987 0-1.397 3.726-6.521 3.727-0.466l0.931-6.055c1.397-0.932 1.863 5.124 3.261 0.931 1.397-4.192 4.192-0.932 6.987-2.329-0.932 1.863-0.466 5.59 2.794 3.261l3.727-3.261c2.329 5.59 6.055 3.261 7.918 2.329 20.495-13.042 40.99-28.413 60.553-43.784l-0.466 6.055 2.329-7.453c2.329 2.329 4.192 0.466 5.124-0.931 2.795-4.658 6.521-9.316 12.577-13.508-7.453 20.029-16.303 35.866-27.482 48.908l-4.658 5.59c0 3.261-0.932 7.453-4.658 7.918-1.863 0.466-5.59-0.932-8.384 1.863-1.397 1.863 3.261 5.59-0.466 2.795-3.261-2.329-6.521 0-10.248 0.932-2.795 0.932 1.863 3.726 2.795 5.589 0.932 1.863 1.863 3.726 1.398 6.056l-5.124-5.59c-6.055 3.261-9.782 9.316-14.906 13.974-2.329 1.863-1.397 5.124-1.397 7.918-3.261 0-6.987-0.932-8.85 0.932-1.397 1.863-0.932 4.658-0.932 7.453-4.658-0.466-5.124-7.453-9.315-6.056-4.192 0.932-8.85 1.397-12.577 3.727 2.795 5.59-4.658 2.329-3.726 3.26-6.987-4.192-13.042-7.453-20.495-4.658-15.837-5.124-35.4-2.795-49.84-0.931 0-2.329 0.466-4.658-0.466-5.124-0.932 2.329-3.726 1.397-3.26 1.397-8.85-6.055-17.7-9.782-27.016-14.905-8.384 0.932-16.303-3.261-18.632-5.59-6.521-6.055-13.974-2.795-20.029-4.192-13.042-3.261-17.7-16.769-19.098-26.084-0.932-4.658-4.658-6.521-6.055-6.056-6.055-19.563-15.371-37.263-22.824-55.429-1.863-4.658-1.397-9.316-1.397-14.44 2.329 0.932 4.658 0.466 4.192-2.794-2.329-15.371-7.918-27.016-13.974-38.195 3.261-15.837 3.726-34.469 11.179-48.443 6.521-12.576 18.632-19.098 27.016-29.811 2.795-3.726 2.795-8.85 5.59-12.11 9.316-9.316 18.632-19.098 28.879-27.482 4.658-3.726 10.247 0 17.234-1.397 2.329-8.384 11.645-15.837 20.495-13.508 3.726 0.932 11.179-8.85 13.508-9.782 3.726-1.397 1.863 3.726 1.863 6.987 8.85-6.987 20.961-10.713 32.14-14.906"
                           fill="#c10000" fill-rule="nonzero" stroke="none" stroke-width="1"
                           stroke-linecap="butt" stroke-linejoin="miter" stroke-miterlimit="10"
                           stroke-dasharray="" stroke-dashoffset="0" font-family="none"
                           font-weight="none" font-size="none" text-anchor="none"
                           style="mix-blend-mode: normal" data-fill-palette-color="tertiary"></path>
                     </g>
                     <g transform="matrix(1,0,0,1,112.23389493871832,90)">
                        <svg viewBox="0 0 95.53221012256336 180" height="180"
                           width="95.53221012256336">
                           <g>
                              <svg viewBox="0 0 95.53221012256336 180" height="180"
                                 width="95.53221012256336">
                                 <g>
                                    <svg viewBox="0 0 127.01019600000002 239.31023107985612"
                                       height="180" width="95.53221012256336">
                                       <g>
                                          <svg viewBox="0 0 127.01019600000002 239.31023107985612"
                                             height="239.31023107985612" width="127.01019600000002">
                                             <g id="textblocktransform">
                                                <svg
                                                   viewBox="0 0 127.01019600000002 239.31023107985612"
                                                   height="239.31023107985612"
                                                   width="127.01019600000002" id="textblock">
                                                   <g>
                                                      <svg
                                                         viewBox="0 0 127.01019600000002 178.88760000000002"
                                                         height="178.88760000000002"
                                                         width="127.01019600000002">
                                                         <g transform="matrix(1,0,0,1,0,0)">
                                                            <svg width="127.01019600000002"
                                                               viewBox="3.9000000953674316 -35 24.850000381469727 35"
                                                               height="178.88760000000002"
                                                               data-palette-color="#c10000">
                                                               <path
                                                                  d="M27.5 0L5.1 0Q4.6 0 4.25-0.35 3.9-0.7 3.9-1.2L3.9-1.2 3.9-33.75Q3.9-34.3 4.25-34.65 4.6-35 5.1-35L5.1-35 27.1-35Q27.65-35 28-34.65 28.35-34.3 28.35-33.75L28.35-33.75 28.35-30.45Q28.35-29.95 28-29.6 27.65-29.25 27.1-29.25L27.1-29.25 10.65-29.25 10.65-20.4 26-20.4Q26.55-20.4 26.9-20.08 27.25-19.75 27.25-19.2L27.25-19.2 27.25-16.1Q27.25-15.55 26.9-15.23 26.55-14.9 26-14.9L26-14.9 10.65-14.9 10.65-5.75 27.5-5.75Q28.05-5.75 28.4-5.4 28.75-5.05 28.75-4.5L28.75-4.5 28.75-1.2Q28.75-0.7 28.4-0.35 28.05 0 27.5 0L27.5 0Z"
                                                                  opacity="1"
                                                                  transform="matrix(1,0,0,1,0,0)"
                                                                  fill="#c10000"
                                                                  class="wordmark-text-0"
                                                                  data-fill-palette-color="primary"
                                                                  id="text-0"></path>
                                                            </svg>
                                                         </g>
                                                      </svg>
                                                   </g>
                                                   <g
                                                      transform="matrix(1,0,0,1,0,204.99159414240003)">
                                                      <svg
                                                         viewBox="0 0 127.01019600000002 34.318636937456084"
                                                         height="34.318636937456084"
                                                         width="127.01019600000002">
                                                         <g transform="matrix(1,0,0,1,0,0)">
                                                            <svg width="127.01019600000002"
                                                               viewBox="3.25 -38 142.2899932861328 38.45000076293945"
                                                               height="34.318636937456084"
                                                               data-palette-color="#003c3b">
                                                               <path
                                                                  d="M30.25-30.25L30.25-30.25Q30.25-29 29.45-28.3 28.65-27.6 27.48-27.6 26.3-27.6 25.65-27.95L25.65-27.95Q25.7-28.3 25.7-28.6L25.7-28.6Q25.7-30.3 24.15-31.65 22.6-33 19.3-33L19.3-33Q14.7-33 11.28-29.08 7.85-25.15 7.85-18.05 7.85-10.95 10.95-7.18 14.05-3.4 19.6-3.4L19.6-3.4Q22.55-3.4 25.1-4.6 27.65-5.8 29.3-7.45L29.3-7.45Q29.65-7.4 29.98-6.98 30.3-6.55 30.3-5.85L30.3-5.85Q30.3-4 26.78-1.78 23.25 0.45 18.45 0.45L18.45 0.45Q11.8 0.45 7.53-4.35 3.25-9.15 3.25-17.45 3.25-25.75 8.1-31 12.95-36.25 20.15-36.25L20.15-36.25Q24.45-36.25 27.35-34.5 30.25-32.75 30.25-30.25ZM53.57-20.38Q51.3-23 47.85-23 44.4-23 42.5-20.63 40.6-18.25 40.6-13.65L40.6-13.65Q40.6-7.7 42.92-5.03 45.25-2.35 48.7-2.35 52.15-2.35 54-4.75 55.85-7.15 55.85-11.75L55.85-11.75Q55.85-17.75 53.57-20.38ZM39.82-22.4Q43.3-25.85 48.25-25.85 53.2-25.85 56.67-22.38 60.15-18.9 60.15-12.68 60.15-6.45 56.67-3 53.2 0.45 48.25 0.45 43.3 0.45 39.82-3 36.35-6.45 36.35-12.7 36.35-18.95 39.82-22.4ZM82.6-8.5L82.6-20.65Q80.35-22.75 77.12-22.75 73.9-22.75 71.62-19.98 69.35-17.2 69.35-12.4 69.35-7.6 71.32-5.2 73.3-2.8 76.3-2.8L76.3-2.8Q81.35-2.8 82.6-8.5L82.6-8.5ZM86.8-34.55L86.8-34.55 86.8-3.1Q86.8-1.65 88.05-1.15L88.05-1.15Q87 0.45 85.4 0.45L85.4 0.45Q82.6 0.45 82.6-3.05L82.6-3.05 82.6-3.85Q80.35 0.45 75.4 0.45L75.4 0.45Q71.2 0.45 68.05-2.93 64.9-6.3 64.9-12.28 64.9-18.25 68.3-22.05 71.7-25.85 76.5-25.85L76.5-25.85Q79.9-25.85 82.6-24.15L82.6-24.15 82.6-34.45Q82.6-35.95 81.35-36.45L81.35-36.45Q82.3-38 83.95-38L83.95-38Q86.8-38 86.8-34.55ZM98.14-14.65L107.49-15.4Q109.54-15.55 109.54-17.78 109.54-20 108.27-21.48 106.99-22.95 104.69-22.95 102.39-22.95 100.49-20.75 98.59-18.55 98.14-14.65L98.14-14.65ZM98.04-12.5Q98.04-7.6 100.17-5.25 102.29-2.9 106.24-2.9 110.19-2.9 112.79-5.5L112.79-5.5Q113.54-5.1 113.54-4.15L113.54-4.15Q113.54-2.5 111.14-1.03 108.74 0.45 105.44 0.45L105.44 0.45Q100.29 0.45 96.99-2.8 93.69-6.05 93.69-11.93 93.69-17.8 97.27-21.83 100.84-25.85 105.49-25.85L105.49-25.85Q109.19-25.85 111.52-23.3 113.84-20.75 113.84-17.5L113.84-17.5Q113.84-15.15 112.57-14.03 111.29-12.9 108.44-12.8L108.44-12.8 98.04-12.5ZM124.92-6.4Q126.24-6.4 126.99-5.63 127.74-4.85 127.74-3.55 127.74-2.25 126.59-1.07 125.44 0.1 124.12 0.1 122.79 0.1 122.02-0.68 121.24-1.45 121.24-2.75 121.24-4.05 122.42-5.23 123.59-6.4 124.92-6.4ZM142.71-6.4Q144.04-6.4 144.79-5.63 145.54-4.85 145.54-3.55 145.54-2.25 144.39-1.07 143.24 0.1 141.91 0.1 140.59 0.1 139.81-0.68 139.04-1.45 139.04-2.75 139.04-4.05 140.21-5.23 141.39-6.4 142.71-6.4Z"
                                                                  opacity="1"
                                                                  transform="matrix(1,0,0,1,0,0)"
                                                                  fill="#003c3b"
                                                                  class="slogan-text-1"
                                                                  data-fill-palette-color="secondary"
                                                                  id="text-1"></path>
                                                            </svg>
                                                         </g>
                                                      </svg>
                                                   </g>
                                                </svg>
                                             </g>
                                          </svg>
                                       </g>
                                       <g></g>
                                    </svg>
                                 </g>
                              </svg>
                           </g>
                        </svg>
                     </g>
                  </svg>
               </g>
               <defs></defs>
            </svg>
            <rect width="320" height="360" fill="none" stroke="none" visibility="hidden"></rect>
         </g>
      </svg>
   </g>
</svg>